<svg xmlns="http://www.w3.org/2000/svg" width="1024" height="1024" viewBox="0 0 240 240" role="img" aria-labelledby="title">
  <title id="title">Don’t Break Fast</title>
  <rect width="240" height="240" rx="52" fill="#f2f2f7"/>
  <defs>
    <clipPath id="window-cut">
      <path d="M0 0h184v88H0zM0 96h184v88H0z"/>
    </clipPath>
  </defs>
  <g transform="translate(28 28)">
    <g fill="none" stroke="#00B1A3" stroke-width="15" stroke-linecap="round" stroke-linejoin="round" clip-path="url(#window-cut)">
      <path d="M18 42v100h18c26 0 39-17 39-50S62 42 36 42H18"/>
      <path d="M87 42v100M87 42h17c20 0 30 10 30 25s-10 25-30 25H87M104 92c22 0 34 10 34 25s-12 25-34 25H87"/>
      <path d="M151 142V42h31M151 92h29"/>
    </g>
    <circle cx="184" cy="92" r="6" fill="#E99B2A"/>
  </g>
</svg>
